<svg xmlns="http://www.w3.org/2000/svg" width="512" height="160" viewBox="0 0 512 160" fill="none">
  <rect width="512" height="160" fill="none"/>
  <g transform="translate(8,16)">
    <circle cx="56" cy="52" r="36" fill="#10A7AC"/>
    <path d="M24 92c10-18 29-30 50-30 12 0 23 4 32 10-8 23-29 40-56 44L24 92z" fill="#0EA5A8"/>
    <path d="M8 92c9-15 24-24 40-24 8 0 16 2 23 6-7 17-21 30-40 36L8 92z" fill="#F26419"/>
    <path d="M20 58c7 0 12 5 12 12s-5 12-12 12S8 77 8 70s5-12 12-12z" fill="#F26419"/>
    <path d="M78 58c7 0 12 5 12 12s-5 12-12 12-12-5-12-12 5-12 12-12z" fill="#10A7AC"/>
  </g>
  <text x="128" y="86" font-family="Inter, Arial, sans-serif" font-size="64" font-weight="800" fill="#10A7AC">MAAK</text>
  <text x="131" y="118" font-family="Inter, Arial, sans-serif" font-size="22" font-weight="600" fill="#6B7280">في طريقك</text>
  <circle cx="426" cy="63" r="9" fill="#F26419"/>
</svg>
